<svg xmlns="http://www.w3.org/2000/svg" width="1920" height="966" viewBox="0 0 1920 966" fill="none">
  <path d="M114.898 662.059C-1.95037 648.468 -26.7763 562.017 -24.5832 520.491L-24.5832 0.487183L1978.16 0.487183V520.491C1980.35 562.017 1955.52 648.468 1838.68 662.059C1692.62 679.047 1696.56 738.505 1674.19 786.638C1651.82 834.772 1616.3 882.905 1491.29 844.681C1366.28 806.458 1243.91 793.717 1150.48 884.32C1075.74 956.803 1003.39 965.014 976.787 965.014C950.185 965.014 877.835 956.803 803.094 884.32C709.667 793.717 587.292 806.458 462.285 844.681C337.279 882.905 301.75 834.772 279.381 786.638C257.011 738.505 260.959 679.047 114.898 662.059Z" fill="#EE7A4A"/>
</svg>