<svg xmlns="http://www.w3.org/2000/svg" width="1920" height="927" viewBox="0 0 1920 927" fill="none">
  <path d="M2185.72 717.165C2326.59 771.701 2330.72 879.598 2315.17 926.73L2121.54 911.378L68.2717 911.379L-171.355 260.467C-161.253 211.876 -103.732 120.497 45.5395 143.706C232.129 172.717 245.59 102.875 288.228 54.8411C330.866 6.80714 389.841 -36.8494 533.24 48.7917C676.64 134.433 824.641 189.829 968.616 116.484C1083.8 57.8087 1176.16 72.4145 1209.19 81.2645C1242.22 90.1144 1329.51 123.647 1399.92 232.052C1487.93 367.557 1643.8 393.584 1810.81 391.116C1977.82 388.649 2007.07 455.944 2019.98 518.861C2032.88 581.779 2009.62 648.994 2185.72 717.165Z" fill="#EE7A4A"/>
</svg>