<svg xmlns="http://www.w3.org/2000/svg" width="1920" height="965" viewBox="0 0 1920 965" fill="none">
  <path d="M99.9448 661.843C-16.9037 648.252 -41.7296 561.801 -39.5365 520.275L-39.5365 0.271484L1963.2 0.271484V520.275C1965.4 561.801 1940.57 648.252 1823.72 661.843C1677.66 678.831 1681.61 738.29 1659.24 786.423C1636.87 834.556 1601.34 882.689 1476.34 844.466C1351.33 806.242 1228.95 793.501 1135.53 884.105C1060.79 956.587 988.436 964.798 961.834 964.798C935.232 964.798 862.881 956.587 788.14 884.105C694.714 793.501 572.339 806.242 447.332 844.466C322.325 882.689 286.797 834.556 264.427 786.423C242.058 738.29 246.005 678.831 99.9448 661.843Z" fill="#572C83"/>
</svg>